<svg width="500" height="500" viewBox="0 0 500 500" fill="none" xmlns="http://www.w3.org/2000/svg">
<path d="M0 250C0 111.929 111.929 0 250 0V0C388.071 0 500 111.929 500 250V250C500 388.071 388.071 500 250 500V500C111.929 500 0 388.071 0 250V250Z" fill="white"/>
<path d="M121.168 258.909L63 68H93.8239L135.088 214.165H137.077L177.844 68H209.165L249.435 213.668H251.423L292.688 68H323.511L267.106 253.125L305.389 387.571H308.372L350.133 240.909H378.969L437.136 431.818H406.312L365.048 285.653H363.06L322.293 431.818H290.972L250.702 286.151H248.713L207.449 431.818H176.625L233.03 246.693L194.747 112.247H191.764L150.003 258.909H121.168Z" fill="black"/>
</svg>
